PathFileType	4	(X/Y/Z)	C:/Users/opensim2020/Desktop/walking_exp_matlab/subject02_walking07_straight_02.trc																																																																																																																																																				
DataRate	CameraRate	NumFrames	NumMarkers	Units	OrigDataRate	OrigDataStartFrame	OrigNumFrames																																																																																																																																																
100	100	7	50	mm	100	1514	210																																																																																																																																																
Frame#	Time	LFHD			RFHD			LBHD			RBHD			C7			T10			CLAV			STRN			RBAK			LSHO			LUPA			LELB			LFRM			LWRA			LWRB			LFIN			RSHO			RUPA			RELB			RFRM			RWRA			RWRB			RFIN			LASI			RASI			LPSI			RPSI			LTHI			LKNE			LTIB			LANK			LHEE			LTOE			RTHI			RKNE			RTIB			RANK			RHEE			RTOE			*39			*40			*41			*42			*43			*44			*45			*46			*47			*48			*49		
		X1	Y1	Z1	X2	Y2	Z2	X3	Y3	Z3	X4	Y4	Z4	X5	Y5	Z5	X6	Y6	Z6	X7	Y7	Z7	X8	Y8	Z8	X9	Y9	Z9	X10	Y10	Z10	X11	Y11	Z11	X12	Y12	Z12	X13	Y13	Z13	X14	Y14	Z14	X15	Y15	Z15	X16	Y16	Z16	X17	Y17	Z17	X18	Y18	Z18	X19	Y19	Z19	X20	Y20	Z20	X21	Y21	Z21	X22	Y22	Z22	X23	Y23	Z23	X24	Y24	Z24	X25	Y25	Z25	X26	Y26	Z26	X27	Y27	Z27	X28	Y28	Z28	X29	Y29	Z29	X30	Y30	Z30	X31	Y31	Z31	X32	Y32	Z32	X33	Y33	Z33	X34	Y34	Z34	X35	Y35	Z35	X36	Y36	Z36	X37	Y37	Z37	X38	Y38	Z38	X39	Y39	Z39	X40	Y40	Z40	X41	Y41	Z41	X42	Y42	Z42	X43	Y43	Z43	X44	Y44	Z44	X45	Y45	Z45	X46	Y46	Z46	X47	Y47	Z47	X48	Y48	Z48	X49	Y49	Z49	X50	Y50	Z50
																																																																																																																																																							
184	1.83	924.41711	1715.55774	874.54199	919.26886	1701.31299	1017.36963	782.38495	1665.70178	866.81293	764.68329	1652.19128	1007.75024	710.46796	1518.62732	941.2912	668.90729	1237.91565	950.96368	852.20911	1455.01575	931.78485	912.82318	1287.27222	943.81036	656.43115	1338.68506	1005.92975	781.16455	1496.10913	763.90186	825.54413	1310.10657	666.04102	883.68286	1180.69482	639.79962	973.8205	1080.80103	636.55438	1089.08899	1019.52753	683.17303	1058.10437	991.5918	645.37714	1115.62256	959.26239	645.83118	783.68384	1486.70959	1127.75293	761.18835	1295.07837	1214.02844	788.72418	1155.01953	1245.44507	826.84918	1043.57703	1275.98804	887.45355	920.97577	1271.06091	839.62915	916.16315	1301.18652	881.77869	856.05536	1309.51855	907.05029	982.69238	818.6452	915.19751	978.00464	1072.74512	697.13873	1021.43677	905.03046	695.87512	1021.70618	1019.53229	822.24976	667.54688	788.17633	769.13446	469.98291	829.91455	690.73492	290.43094	842.76013	671.85706	69.80195	892.13574	636.31903	44.59443	946.94366	825.55682	28.37354	871.10968	900.88837	683.87415	1177.16541	967.66522	485.93387	1164.23999	931.62042	303.03406	1175.02637	930.80573	108.07092	1154.64124	917.0365	47.46076	1094.59863	1076.11182	60.54792	1203.28784	834.92352	1800.79761	960.30219	-2845.83838	1033.8468	3356.93237	NaN	NaN	NaN	NaN	NaN	NaN	NaN	NaN	NaN	NaN	NaN	NaN	NaN	NaN	NaN	NaN	NaN	NaN	NaN	NaN	NaN	NaN	NaN	NaN	NaN	NaN	NaN
185	1.84	933.34045	1714.06995	875.21552	928.04279	1699.67468	1017.89899	791.13354	1664.55847	867.18103	773.26038	1650.99744	1008.12445	718.78314	1517.71008	941.60925	676.70325	1236.99365	951.73761	860.35956	1453.68518	931.9826	920.67743	1285.84448	943.87372	664.49243	1337.80518	1006.50134	789.4057	1495.00659	764.17981	834.04291	1309.38208	666.22034	894.09045	1180.8385	639.52594	985.95099	1082.05945	636.40308	1101.14014	1021.66705	683.34436	1070.38574	993.64911	645.08215	1128.4502	961.91296	645.80121	792.24884	1485.54639	1128.06201	769.04706	1294.13037	1214.57434	795.51025	1154.0813	1246.19067	833.04987	1042.47119	1276.84509	892.68964	918.99127	1272.09338	844.95325	914.93738	1302.41333	886.57098	854.6189	1310.88342	914.44366	981.86102	818.70258	923.4884	976.72601	1072.71033	704.84973	1020.38971	905.79724	703.99982	1020.49902	1020.25415	827.05109	666.79486	788.17297	773.06262	469.54483	830.05829	693.00891	290.64563	842.84094	672.10522	70.15405	892.27368	637.00934	45.22517	947.37134	825.3772	28.54263	870.91248	909.77332	682.36646	1176.5769	978.77325	484.98206	1162.91345	949.70972	300.90363	1175.70886	955.89594	105.73595	1157.05188	943.02411	44.43906	1097.77808	1104.25085	63.66267	1202.8833	844.16504	1799.70801	961.1759	-2845.13037	1034.20081	3360.22363	NaN	NaN	NaN	NaN	NaN	NaN	NaN	NaN	NaN	NaN	NaN	NaN	NaN	NaN	NaN	NaN	NaN	NaN	NaN	NaN	NaN	NaN	NaN	NaN	NaN	NaN	NaN
186	1.85	942.19061	1712.5835	875.98926	936.84436	1698.08789	1018.53674	799.81897	1663.54419	867.5	781.9137	1649.47119	1008.3761	727.1601	1516.60193	941.97681	684.7691	1236.02014	952.53485	868.60724	1452.32593	932.2735	928.61389	1284.43567	944.00336	672.89655	1336.62219	1006.35706	797.61377	1493.8396	764.59186	843.91632	1308.80908	666.58765	904.28131	1180.71936	639.44885	996.40851	1082.64575	636.24933	1112.36536	1023.06519	683.73474	1082.3075	995.21405	644.93622	1140.62183	964.00336	645.73291	800.89124	1484.20337	1128.40222	776.90839	1293.38904	1215.71729	802.51428	1153.00757	1246.82361	839.1991	1041.22998	1277.94092	898.33307	917.59961	1273.55261	850.40765	913.71216	1303.6322	891.71948	853.17273	1312.25098	921.73383	980.72443	818.58588	931.88843	975.40979	1072.7251	712.30914	1019.34351	906.65149	712.20013	1019.27576	1021.12183	832.27875	666.01666	788.07446	776.89886	469.15356	830.21338	695.18018	291.00351	842.98914	672.33038	70.57019	892.35046	637.12903	45.8394	947.59631	825.36261	28.49975	870.79199	918.42389	680.71753	1175.97192	989.4447	483.80341	1161.1073	967.56512	299.1308	1176.4856	980.62134	104.04567	1159.41858	968.57758	41.94218	1101.07886	1131.48938	67.531	1201.98657	853.35461	1798.41992	961.82648	-2845.29395	1033.86047	3360.37012	NaN	NaN	NaN	NaN	NaN	NaN	NaN	NaN	NaN	NaN	NaN	NaN	NaN	NaN	NaN	NaN	NaN	NaN	NaN	NaN	NaN	NaN	NaN	NaN	NaN	NaN	NaN
187	1.86	951.30109	1711.05505	876.49493	945.68744	1696.45251	1019.17023	808.73596	1662.59705	868.04553	790.61682	1648.66919	1009.07306	735.66876	1515.4729	942.46851	692.75641	1234.94775	953.48126	876.85144	1450.93909	932.68323	936.67505	1283.00232	944.27704	681.11993	1335.56299	1006.94244	805.93811	1492.62683	765.03229	852.52142	1307.63684	667.04327	914.13544	1180.32483	639.57642	1007.02832	1082.92322	636.34583	1123.40295	1023.98468	683.97736	1093.60559	996.2265	644.9046	1152.03333	965.49164	645.78143	809.40796	1482.91382	1128.86133	784.96844	1292.06628	1215.92761	809.77777	1151.81274	1247.39172	845.58374	1039.94897	1279.13867	904.31537	916.04077	1275.06616	856.13092	912.44196	1304.92444	896.97577	851.61438	1313.66541	929.07208	979.49908	818.53284	940.43774	974.05402	1072.75745	720.05261	1018.34808	907.74335	720.47406	1017.97644	1022.11218	837.08612	665.3111	788.2312	780.51263	468.72159	830.36145	697.28888	291.37271	843.12964	672.29883	71.04134	892.35327	637.09894	46.63157	947.58899	825.37048	28.46007	870.68463	926.91418	678.87762	1175.31921	1000.03613	482.78232	1159.48828	985.11273	297.69226	1177.37732	1004.85156	102.9072	1161.62891	993.60748	39.81779	1104.24097	1158.03247	71.79585	1200.69482	862.38489	1796.94849	962.21698	-2845.15454	1033.86523	3360.24805	NaN	NaN	NaN	NaN	NaN	NaN	NaN	NaN	NaN	NaN	NaN	NaN	NaN	NaN	NaN	NaN	NaN	NaN	NaN	NaN	NaN	NaN	NaN	NaN	NaN	NaN	NaN
188	1.87	960.31738	1709.50195	877.23193	954.55322	1694.86279	1019.87573	817.52557	1661.32092	868.60675	799.35046	1647.31445	1009.50525	744.03998	1514.38953	943.05615	700.89746	1233.82312	954.50732	885.21466	1449.56384	933.18518	944.79773	1281.57202	944.70367	689.14545	1334.62354	1008.31628	814.36151	1491.31323	765.55743	861.40314	1306.52124	667.64197	923.42163	1179.56152	639.9248	1017.005	1082.77966	636.50629	1133.79578	1024.72693	684.09473	1104.52722	996.7309	645.02136	1163.08923	966.55902	645.64862	817.95734	1481.61255	1129.44324	793.04059	1291.229	1217.10669	817.09546	1150.71484	1248.22266	852.40308	1038.8186	1279.96924	910.07739	914.37854	1276.27673	862.08026	911.19122	1306.27209	902.51904	849.82202	1315.05835	936.5614	978.14453	818.36298	949.15173	972.63654	1072.89429	728.01825	1017.26013	908.87518	728.97162	1016.63525	1023.22156	841.67303	664.43396	788.46881	784.21222	468.34558	830.59375	699.31274	291.83426	843.41406	672.81976	71.55527	892.49561	637.10187	47.01207	947.5097	825.36957	28.44388	870.56488	935.57147	676.90399	1174.93738	1010.22797	481.57394	1157.8645	1002.49799	296.36606	1178.19983	1028.57886	102.15255	1163.60217	1018.117	38.48945	1107.01379	1183.83228	76.2588	1198.93982	871.60999	1795.58984	962.93951	-2845.10718	1034.0166	3360.21094	NaN	NaN	NaN	NaN	NaN	NaN	NaN	NaN	NaN	NaN	NaN	NaN	NaN	NaN	NaN	NaN	NaN	NaN	NaN	NaN	NaN	NaN	NaN	NaN	NaN	NaN	NaN
189	1.88	969.50031	1707.74036	878.21094	963.44885	1693.21777	1020.67896	826.39301	1660.17871	869.10059	808.09772	1646.01917	1010.08923	752.60004	1513.11963	943.5979	709.1532	1232.67285	955.68201	893.61652	1448.14771	933.83215	953.06329	1280.14587	945.17194	697.44031	1333.41907	1009.22888	822.81201	1489.97229	766.14679	869.89514	1305.43079	668.22748	932.57092	1178.60791	640.39154	1026.67969	1082.33008	636.79034	1143.75854	1024.87939	684.21423	1114.39795	996.79785	645.1366	1173.21155	966.97845	645.66998	826.47339	1480.31262	1130.04077	801.37524	1289.78235	1217.02588	824.59534	1149.63245	1249.24475	859.20929	1037.43237	1281.2594	916.28992	912.75842	1277.68042	868.20844	909.96313	1307.69995	908.22198	848.55792	1316.5531	944.20721	976.75464	818.1098	958.0733	971.14331	1073.14075	736.02991	1016.13989	910.19946	737.46576	1015.27692	1024.49805	847.31018	663.97723	788.57843	787.987	468.03134	830.79041	701.38068	292.33051	843.7514	673.11749	72.12193	892.52612	637.04205	47.62228	947.57513	825.51294	28.42728	870.44666	943.8941	674.84015	1174.42346	1020.3927	480.46368	1156.6261	1019.47186	295.3316	1178.92139	1051.71777	101.78764	1165.20959	1041.59875	37.37997	1109.65002	1208.73193	80.79771	1196.80505	880.87408	1794.36072	963.94141	-2845.72656	1034.08594	3357	NaN	NaN	NaN	NaN	NaN	NaN	NaN	NaN	NaN	NaN	NaN	NaN	NaN	NaN	NaN	NaN	NaN	NaN	NaN	NaN	NaN	NaN	NaN	NaN	NaN	NaN	NaN
190	1.89	978.12665	1706.15454	878.72723	972.38062	1691.6239	1021.43964	835.34924	1659.08533	869.74945	816.87994	1644.63477	1010.75604	761.19354	1511.81226	944.28998	717.51617	1231.43042	956.87433	902.13928	1446.75647	934.49872	961.44702	1278.72156	945.78357	705.86462	1331.96069	1010.12762	831.3631	1488.56934	766.80072	878.73682	1304.21619	669.03815	941.38434	1177.41638	641.02637	1035.81848	1081.50977	637.27692	1153.46765	1024.74084	684.20947	1124.05676	996.23309	645.46674	1182.74658	966.68848	645.65497	834.88818	1479.03857	1130.77161	809.49371	1288.85303	1218.43823	832.22498	1148.44275	1250.21606	866.2608	1036.18994	1282.31909	922.64923	911.11554	1279.18201	874.55249	908.66901	1309.11511	914.10706	846.85864	1318.13269	951.84711	975.32397	818.16669	967.14178	969.57996	1073.3894	744.1748	1015.02087	911.68781	746.17487	1013.84894	1025.89685	851.74823	663.15363	788.80786	791.85706	467.69632	831.03546	703.51831	292.84039	844.05249	673.35718	72.71861	892.5788	637.4129	48.53336	947.66248	825.36755	28.40149	870.30096	951.79718	672.77936	1173.62976	1030.40771	479.31403	1155.48975	1035.81848	294.47736	1179.36072	1074.14441	101.7103	1166.50525	1064.53467	36.76129	1111.68201	1232.99438	85.40903	1194.17786	890.08154	1793.01001	964.69293	-2845.20337	1033.92603	3360.28198	NaN	NaN	NaN	NaN	NaN	NaN	NaN	NaN	NaN	NaN	NaN	NaN	NaN	NaN	NaN	NaN	NaN	NaN	NaN	NaN	NaN	NaN	NaN	NaN	NaN	NaN	NaN
